<?xml version="1.0" standalone="no"?><!DOCTYPE svg PUBLIC "-//W3C//DTD SVG 1.1//EN" "http://www.w3.org/Graphics/SVG/1.1/DTD/svg11.dtd"><svg t="1652690331133" class="icon" viewBox="0 0 1024 1024" version="1.1" xmlns="http://www.w3.org/2000/svg" p-id="7723" xmlns:xlink="http://www.w3.org/1999/xlink" width="48" height="48"><defs><style type="text/css">@font-face { font-family: "feedback-iconfont"; src: url("//at.alicdn.com/t/font_1031158_u69w8yhxdu.woff2?t=1630033759944") format("woff2"), url("//at.alicdn.com/t/font_1031158_u69w8yhxdu.woff?t=1630033759944") format("woff"), url("//at.alicdn.com/t/font_1031158_u69w8yhxdu.ttf?t=1630033759944") format("truetype"); }
</style></defs><path d="M512 615.4 768 384 608 384 608 192 415.2 192 415.2 384 256 384Z" p-id="7724"></path><path d="M930.8 594.4l-142.8-110-84 0 124 123.6-101.2 0c-4.6 0-8.6 2.4-10.8 5.8l-36.8 91L344.2 704.8l-36.8-91c-2-3.6-6.2-5.8-10.8-5.8L195.6 608l124.4-123.6-84.4 0-142.8 110c-21.2 12.4-31.6 38-28.2 63.2l17.4 133.8c4.6 26.2 19.4 40.6 56.2 40.6l747.6 0c38.2 0 51.6-15.2 56.2-40.6l17.4-133.8C962.8 631.8 952 606.8 930.8 594.4z" p-id="7725"></path></svg>