<?xml version="1.0" standalone="no"?><!DOCTYPE svg PUBLIC "-//W3C//DTD SVG 1.1//EN" "http://www.w3.org/Graphics/SVG/1.1/DTD/svg11.dtd"><svg t="1652886066033" class="icon" viewBox="0 0 1024 1024" version="1.1" xmlns="http://www.w3.org/2000/svg" p-id="3179" xmlns:xlink="http://www.w3.org/1999/xlink" width="48" height="48"><defs><style type="text/css">@font-face { font-family: "feedback-iconfont"; src: url("//at.alicdn.com/t/font_1031158_u69w8yhxdu.woff2?t=1630033759944") format("woff2"), url("//at.alicdn.com/t/font_1031158_u69w8yhxdu.woff?t=1630033759944") format("woff"), url("//at.alicdn.com/t/font_1031158_u69w8yhxdu.ttf?t=1630033759944") format("truetype"); }
</style></defs><path d="M554.666667 896v106.666667l-128-85.333334-128 85.333334V896h-21.333334A149.333333 149.333333 0 0 1 128 746.666667V213.333333a128 128 0 0 1 128-128h597.333333a42.666667 42.666667 0 0 1 42.666667 42.666667v725.333333a42.666667 42.666667 0 0 1-42.666667 42.666667h-298.666666z m-256-85.333333v-85.333334h256v85.333334h256v-128H277.333333a64 64 0 0 0 0 128H298.666667zM298.666667 213.333333v85.333334h85.333333V213.333333H298.666667z m0 128v85.333334h85.333333V341.333333H298.666667z m0 128v85.333334h85.333333v-85.333334H298.666667z" p-id="3180"></path></svg>