<?xml version="1.0" standalone="no"?><!DOCTYPE svg PUBLIC "-//W3C//DTD SVG 1.1//EN" "http://www.w3.org/Graphics/SVG/1.1/DTD/svg11.dtd"><svg t="1652690189205" class="icon" viewBox="0 0 1024 1024" version="1.1" xmlns="http://www.w3.org/2000/svg" p-id="6923" xmlns:xlink="http://www.w3.org/1999/xlink" width="48" height="48"><defs><style type="text/css">@font-face { font-family: "feedback-iconfont"; src: url("//at.alicdn.com/t/font_1031158_u69w8yhxdu.woff2?t=1630033759944") format("woff2"), url("//at.alicdn.com/t/font_1031158_u69w8yhxdu.woff?t=1630033759944") format("woff"), url("//at.alicdn.com/t/font_1031158_u69w8yhxdu.ttf?t=1630033759944") format("truetype"); }
</style></defs><path d="M138.9 542.7l141.7 84.2c14.5 8.6 32.9 7.4 46.1-3.2l329.8-264c2.5-2 5.6 1.5 3.4 3.8L373.3 650.1c-12 12-15.3 30.3-8.2 45.7L438.4 855c6.4 13.9 25.3 16 34.6 3.8l58.9-77.4c1.6-2.1 4.4-2.6 6.6-1.3l175.1 104c24.2 14.4 55.3 0.4 60.6-27.2l130-674.6c6.3-32.7-27.1-58.6-57.2-44.4L142.3 471.1c-29.5 13.9-31.4 55-3.4 71.6z" p-id="6924"></path></svg>